<?xml version="1.0" encoding="UTF-8" standalone="no"?>
<svg
   viewBox="0 0 68 61.25"
   x="0px"
   y="0px"
   version="1.1"
   id="svg300"
   sodipodi:docname="origami.svg"
   inkscape:export-filename="origami.png"
   inkscape:export-xdpi="361.41177"
   inkscape:export-ydpi="361.41177"
   inkscape:version="1.2.2 (b0a84865, 2022-12-01)"
   xmlns:inkscape="http://www.inkscape.org/namespaces/inkscape"
   xmlns:sodipodi="http://sodipodi.sourceforge.net/DTD/sodipodi-0.dtd"
   xmlns="http://www.w3.org/2000/svg"
   xmlns:svg="http://www.w3.org/2000/svg">
  <defs
     id="defs304" />
  <sodipodi:namedview
     id="namedview302"
     pagecolor="#ffffff"
     bordercolor="#000000"
     borderopacity="0.25"
     inkscape:showpageshadow="2"
     inkscape:pageopacity="0.0"
     inkscape:pagecheckerboard="0"
     inkscape:deskcolor="#d1d1d1"
     showgrid="false"
     inkscape:zoom="11.363265"
     inkscape:cx="29.920977"
     inkscape:cy="28.688937"
     inkscape:window-width="1512"
     inkscape:window-height="916"
     inkscape:window-x="0"
     inkscape:window-y="38"
     inkscape:window-maximized="1"
     inkscape:current-layer="svg300" />
  <path
     d="m 345,319.29967 16.72977,-2.28133 c 1.76464,-0.24063 2.94,1.77155 1.86361,3.19043 L 345,344.71823 Z"
     transform="translate(-296,-306)"
     id="path1023"
     style="fill:#0a210f;fill-opacity:1" />
  <path
     d="m 326.15477,317.45704 12.52822,-10.96219 C 339.97616,305.36333 342,306.28168 342,308 v 33.80018 l -13.73699,-22.41299 c -0.55777,-0.91004 -1.294,-1.54398 -2.10824,-1.93015 z"
     transform="translate(-296,-306)"
     id="path1021"
     style="fill:#14591d;fill-opacity:1" />
  <path
     d="M 311.62707,336 H 298 c -1.78181,0 -2.67414,-2.15428 -1.41421,-3.41421 l 8.75869,-8.7587 c 0.0633,0.15928 0.13539,0.3176 0.21675,0.4745 z"
     transform="translate(-296,-306)"
     id="path1019"
     style="fill:#fc9f5b;fill-opacity:1" />
  <path
     d="M 319,343.70197 308.22449,322.92063 C 307.53418,321.58932 308.50036,320 310,320 h 9.39161 C 319.14159,320.59253 319,321.26232 319,322 Z"
     transform="translate(-296,-306)"
     id="path1017"
     style="fill:#e1e289;fill-opacity:1" />
  <path
     d="m 322,349 v -27 c 0,-2.01854 2.65039,-2.76613 3.7052,-1.04512 l 19,31 c 0.91704,1.49621 -0.39998,3.36374 -2.11722,3.00222 l -19,-4 C 322.66249,350.76226 322,349.94577 322,349 Z"
     transform="translate(-296,-306)"
     id="path294"
     style="fill:#99aa38;fill-opacity:1" />
</svg>
