<?xml version="1.0" encoding="UTF-8" standalone="no"?>
<svg
   viewBox="0 0 68.010002 49.006458"
   x="0px"
   y="0px"
   version="1.1"
   id="svg300"
   sodipodi:docname="flok.svg"
   inkscape:export-filename="origami.png"
   inkscape:export-xdpi="361.41177"
   inkscape:export-ydpi="361.41177"
   inkscape:version="1.2.2 (b0a84865, 2022-12-01)"
   width="68.010002"
   height="49.006458"
   xmlns:inkscape="http://www.inkscape.org/namespaces/inkscape"
   xmlns:sodipodi="http://sodipodi.sourceforge.net/DTD/sodipodi-0.dtd"
   xmlns="http://www.w3.org/2000/svg"
   xmlns:svg="http://www.w3.org/2000/svg">
  <defs
     id="defs304" />
  <sodipodi:namedview
     id="namedview302"
     pagecolor="#ffffff"
     bordercolor="#000000"
     borderopacity="0.25"
     inkscape:showpageshadow="2"
     inkscape:pageopacity="0.0"
     inkscape:pagecheckerboard="true"
     inkscape:deskcolor="#d1d1d1"
     showgrid="false"
     inkscape:zoom="11.363265"
     inkscape:cx="27.808909"
     inkscape:cy="25.69684"
     inkscape:window-width="1512"
     inkscape:window-height="916"
     inkscape:window-x="0"
     inkscape:window-y="38"
     inkscape:window-maximized="1"
     inkscape:current-layer="svg300" />
  <path
     d="m 49.004007,13.303559 16.72977,-2.28133 c 1.76464,-0.24063 2.94,1.77155 1.86361,3.19043 l -18.59338,24.50946 z"
     id="path1023"
     style="fill:#cf1259;fill-opacity:1;stroke-width:1.0015748;stroke-dasharray:none;stroke:none" />
  <path
     d="M 30.158777,11.460929 42.686997,0.49873938 c 1.29317,-1.13152 3.31701,-0.21317 3.31701,1.50515002 V 35.804069 l -13.73699,-22.41299 c -0.55777,-0.91004 -1.294,-1.54398 -2.10824,-1.93015 z"
     id="path1021"
     style="fill:#dd7596;fill-opacity:1;stroke-width:1.0015748;stroke-dasharray:none;stroke:none" />
  <path
     d="M 15.631077,30.003889 H 2.004007 c -1.78180999,0 -2.67413999,-2.15428 -1.41420999,-3.41421 l 8.75868999,-8.7587 c 0.0633,0.15928 0.13539,0.3176 0.21675,0.4745 z"
     id="path1019"
     style="fill:#1e3231;fill-opacity:1;stroke-width:1.0015748;stroke-dasharray:none;stroke:none" />
  <path
     d="m 23.004007,37.705859 -10.77551,-20.78134 c -0.69031,-1.33131 0.27587,-2.92063 1.77551,-2.92063 h 9.39161 c -0.25002,0.59253 -0.39161,1.26232 -0.39161,2 z"
     id="path1017"
     style="fill:#485665;fill-opacity:1;stroke-width:1.0015748;stroke-dasharray:none;stroke:none" />
  <path
     d="m 26.004007,43.003889 v -27 c 0,-2.01854 2.65039,-2.76613 3.7052,-1.04512 l 19,31 c 0.91704,1.49621 -0.39998,3.36374 -2.11722,3.00222 l -19,-4 c -0.92549,-0.19484 -1.58798,-1.01133 -1.58798,-1.9571 z"
     id="path294"
     style="fill:#b7c3f3;fill-opacity:1;stroke-width:1.0015748;stroke-dasharray:none;stroke:none" />
</svg>
